<svg version="1.0" xmlns="http://www.w3.org/2000/svg" width="1706.667" height="853.333" viewBox="0 0 1280 640"><path d="M585.5 131.6C474.9 137.1 382 152.2 281.9 181c-22.4 6.4-67.9 21.4-85.9 28.2-20.5 7.7-56 22-56.4 22.6-.2.4 2.5 7.4 6 15.6s6.6 15.7 6.9 16.6c.4 1.4-2.9 3.2-17.7 9.5-25.2 10.8-53.3 24-72.3 34.2C45.3 316.9 1 343 1 343.9c0 .3 2.7 2.1 5.9 3.9C15.9 353 22 358.9 36 376c12.5 15.3 19.5 22.4 25.3 25.8 3.2 1.9 3.2.7.1 17.2-1.2 6.4-1.7 16.5-1.9 40.5-.1 19-.7 35-1.4 39.3-.7 4-1.1 7.6-.9 8.2.2.5 6.2-2.9 13.3-7.6 52.8-34.4 94.9-56.1 160.5-82.5 10.7-4.3 19.5-8.2 19.5-8.6 0-.5-3.5-7.7-7.8-16-4.2-8.4-7.7-15.6-7.7-16.1 0-.4 7.8-3.6 17.3-7.2 93.3-34.5 188.3-56 285.2-64.4 39.9-3.5 52.5-4 98-4 45.4 0 58.7.5 98 4 84.3 7.3 167.8 24.7 247.8 51.4 19.4 6.5 53.2 18.6 54.5 19.6.2.1-3.3 7.5-7.8 16.4-4.5 8.9-8 16.3-7.8 16.4.2.2 7.5 3.1 16.3 6.6 62.2 24.6 109.4 48.5 159.8 81.2 9.3 6 17.1 10.7 17.3 10.5.3-.2 0-3.3-.7-6.8-.6-3.7-1.3-20.4-1.5-39.9-.3-32.5-.5-35.3-4.1-54-.4-2.2.5-3.1 7.4-7.7 4.3-2.8 14.6-11.3 22.8-18.9 17.9-16.3 24.6-21.4 34.3-26.2 3.9-2 7.2-3.9 7.2-4.2 0-.7-3.1-2.6-24-15.2-39.8-24-75.5-42.1-124.6-63.3l-11.1-4.7 6.8-16c3.8-8.8 6.9-16.3 6.9-16.8 0-1.8-61-25.4-96.4-37.1-103.9-34.5-201.9-53.8-317.6-62.5-19.1-1.4-114.8-2.7-133.5-1.8z"/></svg>