<?xml version="1.0" standalone="no"?>
<!DOCTYPE svg PUBLIC "-//W3C//DTD SVG 20010904//EN"
 "http://www.w3.org/TR/2001/REC-SVG-20010904/DTD/svg10.dtd">
<svg version="1.0" xmlns="http://www.w3.org/2000/svg"
 width="1280.000000pt" height="640.000000pt" viewBox="0 0 1280.000000 640.000000"
 preserveAspectRatio="xMidYMid meet">
<metadata>
Created by potrace 1.15, written by Peter Selinger 2001-2017
</metadata>
<g transform="translate(0.000000,640.000000) scale(0.100000,-0.100000)"
fill="#000000" stroke="none">
<path d="M5855 5084 c-1106 -55 -2035 -206 -3036 -494 -224 -64 -679 -214
-859 -282 -205 -77 -560 -220 -564 -226 -2 -4 25 -74 60 -156 35 -82 66 -157
69 -166 4 -14 -29 -32 -177 -95 -252 -108 -533 -240 -723 -342 -172 -92 -615
-353 -615 -362 0 -3 27 -21 59 -39 90 -52 151 -111 291 -282 125 -153 195
-224 253 -258 32 -19 32 -7 1 -172 -12 -64 -17 -165 -19 -405 -1 -190 -7 -350
-14 -393 -7 -40 -11 -76 -9 -82 2 -5 62 29 133 76 528 344 949 561 1605 825
107 43 195 82 195 86 0 5 -35 77 -78 160 -42 84 -77 156 -77 161 0 4 78 36
173 72 933 345 1883 560 2852 644 399 35 525 40 980 40 454 0 587 -5 980 -40
843 -73 1678 -247 2478 -514 194 -65 532 -186 545 -196 2 -1 -33 -75 -78 -164
-45 -89 -80 -163 -78 -164 2 -2 75 -31 163 -66 622 -246 1094 -485 1598 -812
93 -60 171 -107 173 -105 3 2 0 33 -7 68 -6 37 -13 204 -15 399 -3 325 -5 353
-41 540 -4 22 5 31 74 77 43 28 146 113 228 189 179 163 246 214 343 262 39
20 72 39 72 42 0 7 -31 26 -240 152 -398 240 -755 421 -1246 633 l-111 47 68
160 c38 88 69 163 69 168 0 18 -610 254 -964 371 -1039 345 -2019 538 -3176
625 -191 14 -1148 27 -1335 18z"/>
</g>
</svg>
